<?xml version="1.0" encoding="UTF-8"?>
<!--Generator: Apple Native CoreSVG 232.5-->
<!DOCTYPE svg
PUBLIC "-//W3C//DTD SVG 1.1//EN"
       "http://www.w3.org/Graphics/SVG/1.1/DTD/svg11.dtd">
<svg version="1.1" xmlns="http://www.w3.org/2000/svg" xmlns:xlink="http://www.w3.org/1999/xlink" width="498.25" height="460.75">
 <g>
  <rect height="460.75" opacity="0" width="498.25" x="0" y="0"/>
  <path d="M78.5 460.75L420 460.75C472.25 460.75 498.25 434.75 498.25 383.25L498.25 78C498.25 26.5 472.25 0.5 420 0.5L78.5 0.5C26.25 0.5 0 26.25 0 78L0 383.25C0 435 26.25 460.75 78.5 460.75ZM74.75 420.5C52.5 420.5 40.25 408.75 40.25 385.5L40.25 149.75C40.25 126.75 52.5 114.75 74.75 114.75L423.25 114.75C445.5 114.75 458 126.75 458 149.75L458 385.5C458 408.75 445.5 420.5 423.25 420.5ZM200.5 204.5L215.25 204.5C224 204.5 226.75 202 226.75 193.25L226.75 178.5C226.75 169.75 224 167 215.25 167L200.5 167C191.75 167 188.75 169.75 188.75 178.5L188.75 193.25C188.75 202 191.75 204.5 200.5 204.5ZM283.5 204.5L298.25 204.5C307 204.5 310 202 310 193.25L310 178.5C310 169.75 307 167 298.25 167L283.5 167C274.75 167 271.75 169.75 271.75 178.5L271.75 193.25C271.75 202 274.75 204.5 283.5 204.5ZM366.5 204.5L381.25 204.5C390 204.5 393 202 393 193.25L393 178.5C393 169.75 390 167 381.25 167L366.5 167C357.75 167 355 169.75 355 178.5L355 193.25C355 202 357.75 204.5 366.5 204.5ZM117.5 286.25L132 286.25C141 286.25 143.75 283.75 143.75 275L143.75 260.25C143.75 251.5 141 249 132 249L117.5 249C108.5 249 105.75 251.5 105.75 260.25L105.75 275C105.75 283.75 108.5 286.25 117.5 286.25ZM200.5 286.25L215.25 286.25C224 286.25 226.75 283.75 226.75 275L226.75 260.25C226.75 251.5 224 249 215.25 249L200.5 249C191.75 249 188.75 251.5 188.75 260.25L188.75 275C188.75 283.75 191.75 286.25 200.5 286.25ZM283.5 286.25L298.25 286.25C307 286.25 310 283.75 310 275L310 260.25C310 251.5 307 249 298.25 249L283.5 249C274.75 249 271.75 251.5 271.75 260.25L271.75 275C271.75 283.75 274.75 286.25 283.5 286.25ZM366.5 286.25L381.25 286.25C390 286.25 393 283.75 393 275L393 260.25C393 251.5 390 249 381.25 249L366.5 249C357.75 249 355 251.5 355 260.25L355 275C355 283.75 357.75 286.25 366.5 286.25ZM117.5 368.25L132 368.25C141 368.25 143.75 365.5 143.75 356.75L143.75 342C143.75 333.25 141 330.75 132 330.75L117.5 330.75C108.5 330.75 105.75 333.25 105.75 342L105.75 356.75C105.75 365.5 108.5 368.25 117.5 368.25ZM200.5 368.25L215.25 368.25C224 368.25 226.75 365.5 226.75 356.75L226.75 342C226.75 333.25 224 330.75 215.25 330.75L200.5 330.75C191.75 330.75 188.75 333.25 188.75 342L188.75 356.75C188.75 365.5 191.75 368.25 200.5 368.25ZM283.5 368.25L298.25 368.25C307 368.25 310 365.5 310 356.75L310 342C310 333.25 307 330.75 298.25 330.75L283.5 330.75C274.75 330.75 271.75 333.25 271.75 342L271.75 356.75C271.75 365.5 274.75 368.25 283.5 368.25Z" fill="#ffffff" fill-opacity="0.85"/>
 </g>
</svg>
